{"glyphs":{"0":{"ha":791,"x_min":24,"x_max":745,"o":"m 519 0 l 252 0 q 160 46 206 0 q 114 135 114 92 l 114 406 q 96 476 114 451 q 24 518 69 514 q 96 562 71 522 q 114 632 114 587 l 114 856 q 123 903 114 886 q 158 947 135 921 q 253 993 201 993 l 519 993 q 610 947 562 993 q 656 856 656 905 l 656 632 q 677 562 656 597 q 745 517 704 526 q 676 476 703 511 q 654 406 654 446 l 654 135 q 610 46 654 93 q 519 0 569 8 m 252 766 l 252 633 q 273 566 252 597 q 340 519 300 528 q 272 479 298 515 q 252 408 252 450 l 250 225 l 519 225 l 519 406 q 501 476 519 449 q 429 518 475 514 q 501 562 474 522 q 519 632 519 590 l 519 766 l 252 766 z "},"1":{"ha":550,"x_min":41,"x_max":492,"o":"m 222 225 l 222 406 q 203 476 222 446 q 131 518 175 514 q 203 562 176 522 q 222 632 222 594 l 222 766 l 41 766 l 41 991 l 131 991 q 168 974 140 991 q 201 929 193 958 q 235 972 212 956 q 244 982 235 972 q 257 989 254 988 q 268 991 262 991 l 358 991 l 358 633 q 380 566 358 596 q 449 519 406 530 q 379 479 408 515 q 358 408 358 447 l 358 225 l 492 225 l 492 0 l 359 0 q 322 21 341 0 q 292 68 295 50 q 260 21 286 50 q 222 0 243 0 l 87 0 l 87 225 l 222 225 z "},"2":{"ha":643,"x_min":43,"x_max":585,"o":"m 406 0 l 225 0 q 187 21 208 0 q 157 68 164 44 q 126 21 153 48 q 87 0 110 0 l 43 0 l 43 236 q 58 300 43 269 q 89 336 60 304 l 395 642 q 408 653 403 648 q 415 660 412 658 q 431 676 427 671 q 449 722 449 705 l 449 766 l 134 766 l 134 675 l 43 675 l 43 991 l 87 991 q 126 971 106 991 q 157 924 152 945 q 187 971 164 947 q 225 991 210 991 l 450 991 q 541 946 495 991 q 585 854 585 902 l 585 697 q 571 648 585 675 q 557 627 566 638 q 536 606 547 613 q 517 586 520 591 l 157 225 l 494 225 l 494 314 l 585 314 l 585 0 l 543 0 q 505 21 524 0 q 475 68 482 44 q 444 21 471 48 q 406 0 428 0 z "},"3":{"ha":637,"x_min":49,"x_max":589,"o":"m 454 0 l 231 0 q 193 21 212 0 q 163 68 170 41 q 132 21 155 47 q 92 0 113 0 l 49 0 l 49 315 l 139 315 l 139 225 l 454 225 l 454 452 l 318 452 l 318 406 l 229 406 l 229 449 q 249 486 229 472 q 297 518 283 514 q 249 549 266 525 q 229 586 229 569 l 229 631 l 318 631 l 318 586 l 454 586 l 454 766 l 139 766 l 139 675 l 49 675 l 49 991 l 93 991 q 132 972 112 991 q 164 924 160 943 q 195 972 170 948 q 232 991 214 991 l 456 991 q 546 946 498 991 q 589 854 589 903 l 589 586 q 571 549 589 570 q 521 518 551 524 q 571 486 532 515 q 589 449 589 471 l 589 134 q 546 45 589 87 q 454 0 497 0 z "},"4":{"ha":757,"x_min":41,"x_max":720,"o":"m 629 0 l 496 0 q 458 21 477 0 q 428 68 435 41 q 396 21 420 45 q 358 0 379 0 l 222 0 l 222 225 l 357 225 l 357 359 l 41 359 l 41 498 l 294 991 l 403 991 q 440 972 423 991 q 472 924 468 943 q 503 972 477 947 q 541 991 523 991 l 631 991 l 631 766 l 493 766 l 493 494 l 629 494 l 629 541 l 720 541 l 720 494 q 700 457 720 480 q 652 425 679 435 q 700 396 665 424 q 720 357 720 378 l 720 314 l 629 314 l 629 359 l 493 359 l 493 225 l 629 225 l 629 0 m 357 814 l 203 496 l 357 496 l 357 814 z "},"5":{"ha":664,"x_min":61,"x_max":604,"o":"m 471 0 l 244 0 q 207 21 226 0 q 176 68 182 43 q 144 21 172 50 q 107 0 130 0 l 61 0 l 61 315 l 151 315 l 151 225 l 468 225 l 468 406 l 61 406 l 61 991 l 151 991 q 189 972 172 991 q 221 924 217 941 q 250 972 228 950 q 289 991 271 991 l 422 991 q 460 971 440 991 q 492 924 486 942 q 522 971 498 945 q 559 991 543 991 l 604 991 l 604 675 l 513 675 l 513 766 l 197 766 l 197 586 l 469 586 q 558 539 513 586 q 604 449 604 491 l 604 134 q 593 86 604 104 q 558 45 581 64 q 517 11 543 28 q 471 0 496 0 z "},"6":{"ha":718,"x_min":8,"x_max":640,"o":"m 640 449 l 640 135 q 629 87 640 111 q 595 46 621 73 q 504 0 552 6 l 236 0 q 144 46 191 0 q 98 135 98 92 l 98 496 q 81 567 98 543 q 8 608 53 604 q 81 653 54 614 q 98 722 98 679 l 98 856 q 110 903 98 882 q 143 947 119 920 q 237 993 186 993 l 460 993 q 498 972 478 993 q 529 924 524 947 q 559 972 534 943 q 597 991 582 991 l 640 991 l 640 675 l 550 675 l 550 766 l 235 766 l 235 586 l 505 586 q 596 539 551 586 q 640 449 640 493 m 236 452 l 236 225 l 504 225 l 504 452 l 236 452 z "},"7":{"ha":653,"x_min":58,"x_max":600,"o":"m 555 0 l 421 0 q 383 21 402 0 q 353 68 359 45 q 322 21 345 46 q 283 0 304 0 l 149 0 l 149 225 l 283 225 l 283 407 q 296 510 283 464 q 340 614 315 565 q 375 667 358 648 q 422 721 385 680 q 465 765 463 763 l 149 765 l 149 675 l 58 675 l 58 991 l 104 991 q 142 972 125 991 q 174 924 170 945 q 204 972 180 948 q 241 991 223 991 l 419 991 q 457 972 439 991 q 489 924 485 941 q 518 972 493 947 q 557 991 541 991 l 600 991 l 600 758 q 478 593 512 648 q 433 509 446 543 q 419 424 419 471 l 419 225 l 555 225 l 555 0 z "},"8":{"ha":796,"x_min":45,"x_max":765,"o":"m 675 856 l 675 587 q 657 549 675 570 q 608 519 636 526 q 627 511 621 517 q 646 497 631 509 q 657 488 657 489 q 673 453 673 475 l 673 440 q 699 383 673 420 q 765 338 722 350 q 697 297 726 334 q 675 227 675 267 l 675 135 q 631 46 675 90 q 541 0 593 8 l 271 0 q 180 46 227 0 q 135 135 135 92 l 135 227 q 117 297 135 271 q 45 339 89 335 q 117 382 90 343 q 135 441 135 411 l 135 452 q 154 486 135 471 q 201 518 189 514 q 154 549 174 524 q 134 586 134 571 l 134 856 q 144 903 134 883 q 178 947 152 918 q 272 993 221 993 l 539 993 q 629 947 582 993 q 675 856 675 906 m 539 586 l 539 766 l 271 766 l 271 586 l 539 586 m 269 452 l 269 225 l 539 225 l 539 452 l 269 452 z "},"9":{"ha":718,"x_min":69,"x_max":703,"o":"m 476 452 l 207 452 q 158 463 181 452 q 115 494 142 469 q 69 585 69 538 l 69 856 q 117 947 69 904 q 211 991 161 991 l 478 991 q 568 946 523 991 q 612 856 610 904 l 612 632 q 636 562 612 595 q 703 517 660 527 q 635 476 663 513 q 612 406 612 447 l 612 135 q 568 46 612 92 q 476 0 522 0 l 252 0 q 214 21 233 0 q 183 68 189 45 q 153 21 176 47 q 114 0 134 0 l 69 0 l 69 314 l 161 314 l 161 225 l 476 225 l 476 452 m 207 766 l 207 586 l 476 586 l 476 766 l 207 766 z "},"#":{"ha":1042,"x_min":174,"x_max":868,"o":"m 174 0 l 174 868 l 868 868 l 868 0 l 174 0 m 846 22 l 846 846 l 196 846 l 196 22 l 846 22 z "}," ":{"ha":315,"x_min":0,"x_max":0,"o":""},"!":{"ha":359,"x_min":25,"x_max":342,"o":"m 117 271 l 117 513 q 97 583 117 559 q 25 625 71 621 q 97 669 72 631 q 117 739 117 696 l 117 993 l 253 993 l 253 742 q 275 673 253 707 q 342 627 299 637 q 273 586 300 621 q 253 515 253 557 l 253 271 l 117 271 m 125 5 q 114 39 125 21 q 78 61 100 59 q 114 82 100 63 q 125 117 125 100 q 160 127 140 117 q 182 161 176 137 q 201 127 183 142 q 237 118 213 118 q 250 81 237 98 q 285 58 263 62 q 250 37 264 54 q 237 5 237 22 q 203 -5 220 5 q 183 -41 183 -18 q 160 -5 181 -21 q 125 5 144 5 z "},"\"":{"ha":367,"x_min":50,"x_max":302,"o":"m 126 821 l 50 821 l 50 997 l 126 997 l 126 821 m 302 821 l 228 821 l 228 997 l 302 997 l 302 821 z "},"$":{"ha":840,"x_min":40,"x_max":808,"o":"m 458 611 l 370 766 l 268 766 l 268 586 l 313 586 q 370 597 343 586 l 458 611 l 467 604 q 538 586 494 586 l 608 586 q 686 555 652 586 q 718 486 718 522 l 718 407 q 742 340 718 372 q 808 293 766 303 q 741 253 768 293 q 718 182 718 223 l 718 135 q 673 46 718 93 q 583 0 631 6 l 458 0 l 458 -132 l 370 -132 l 370 0 l 267 0 q 229 21 245 0 q 197 68 204 45 q 167 21 191 45 q 129 0 148 0 l 86 0 l 86 314 l 175 314 l 175 225 l 370 225 l 370 435 q 306 452 343 452 l 225 452 q 200 457 208 452 q 170 482 189 465 q 132 545 132 513 l 132 586 q 113 657 132 625 q 40 699 83 699 q 113 743 82 699 q 132 812 132 774 l 132 854 q 143 903 132 881 q 175 946 151 921 q 271 991 218 991 l 370 991 l 370 1131 l 458 1131 l 458 991 l 514 991 q 551 971 531 991 q 583 924 576 948 q 614 971 590 945 q 652 991 633 991 l 694 991 l 694 676 l 604 676 l 604 766 l 458 766 l 458 611 m 460 432 q 461 400 461 432 l 461 310 q 460 264 460 285 q 458 225 460 244 l 582 225 l 582 452 l 532 452 q 486 441 510 452 l 460 432 z "},"%":{"ha":991,"x_min":28,"x_max":962,"o":"m 446 619 l 534 1118 l 668 1096 l 579 595 q 589 521 579 540 q 648 469 608 484 q 575 436 606 467 q 541 371 547 412 l 450 -143 l 315 -118 l 407 397 q 408 409 408 404 q 408 427 408 414 q 400 469 408 451 q 338 525 381 513 q 415 554 385 525 q 446 619 437 574 m 275 570 l 142 570 q 96 591 121 570 q 74 636 74 616 l 74 771 q 62 807 74 791 q 28 828 52 826 q 62 850 50 830 q 74 885 74 867 l 74 997 q 94 1043 74 1021 q 143 1065 115 1065 l 275 1065 q 321 1043 298 1065 q 343 997 343 1025 l 343 885 q 354 851 343 871 q 387 827 370 833 q 354 807 368 827 q 343 771 345 797 l 343 636 q 321 591 343 614 q 275 570 303 574 m 850 -75 l 715 -75 q 671 -52 698 -75 q 647 -7 647 -26 l 647 127 q 637 163 647 151 q 603 184 626 182 q 637 205 625 186 q 647 241 647 220 l 647 354 q 669 399 647 373 q 717 422 692 422 l 850 422 q 896 399 867 422 q 918 354 918 378 l 918 241 q 929 207 918 227 q 962 183 943 189 q 928 163 942 181 q 918 127 918 147 l 918 -7 q 896 -52 918 -28 q 850 -75 873 -71 m 142 951 l 142 886 q 153 852 142 871 q 186 828 162 837 q 151 808 168 826 q 142 772 144 800 l 140 682 l 275 682 l 275 771 q 267 807 275 793 q 229 828 252 826 q 267 850 251 830 q 275 885 275 864 l 275 951 l 142 951 m 715 309 l 715 243 q 728 208 715 228 q 760 184 741 189 q 726 164 739 182 q 715 129 715 150 l 715 37 l 850 37 l 850 127 q 840 163 850 151 q 804 184 829 182 q 840 205 827 186 q 850 241 850 220 l 850 309 l 715 309 z "},"&":{"ha":947,"x_min":45,"x_max":897,"o":"m 271 406 l 436 406 l 595 12 q 610 4 595 8 q 646 0 626 0 q 708 21 690 0 q 741 68 735 52 q 771 21 748 41 q 808 0 789 0 l 897 0 l 897 225 l 650 225 l 576 406 l 618 406 q 632 441 618 425 q 688 475 652 475 q 632 507 653 475 q 618 541 618 528 l 522 541 l 431 768 l 673 768 l 673 721 l 764 721 l 764 993 l 457 993 q 419 972 441 993 q 389 924 395 945 q 357 972 381 947 q 319 993 340 993 l 278 993 l 278 787 l 380 541 l 249 541 q 163 517 189 541 q 139 485 145 499 q 134 435 134 465 q 117 366 134 391 q 45 321 84 321 q 117 279 85 321 q 134 208 134 253 l 134 37 q 151 7 134 20 q 196 -4 172 -4 q 260 21 239 -4 q 292 68 288 52 q 322 21 298 45 q 359 0 341 0 l 450 0 l 450 225 l 271 225 l 271 406 z "},"'":{"ha":176,"x_min":50,"x_max":126,"o":"m 126 821 l 50 821 l 50 997 l 126 997 l 126 821 z "},"(":{"ha":379,"x_min":29,"x_max":366,"o":"m 257 401 l 257 107 q 285 -3 257 37 q 364 -61 317 -46 l 364 -136 q 273 -111 313 -132 q 186 -45 227 -81 q 135 24 149 -11 q 119 107 119 58 l 119 399 q 102 469 119 446 q 29 511 74 507 q 102 555 77 518 q 119 625 119 582 l 119 859 q 134 961 119 922 q 186 1035 149 1004 q 275 1100 226 1069 q 366 1126 317 1123 l 366 1060 q 306 1010 330 1040 q 267 942 282 981 q 257 857 257 903 l 257 628 q 279 559 257 589 q 346 513 304 525 q 278 472 305 509 q 257 401 257 446 z "},")":{"ha":379,"x_min":29,"x_max":366,"o":"m 138 107 l 138 401 q 117 472 138 442 q 49 513 90 507 q 115 559 90 525 q 138 628 138 588 l 138 857 q 127 942 138 911 q 89 1010 117 976 q 29 1060 61 1044 l 29 1126 q 119 1100 83 1122 q 208 1035 170 1069 q 261 962 247 1004 q 273 859 273 921 l 273 625 q 293 555 273 587 q 366 511 321 517 q 293 469 321 507 q 273 399 273 443 l 273 107 q 208 -45 273 12 q 121 -111 161 -86 q 31 -136 82 -132 l 31 -61 q 109 -3 81 -43 q 138 107 138 42 z "},"+":{"ha":554,"x_min":40,"x_max":507,"o":"m 345 550 q 382 545 359 545 l 507 545 l 507 408 l 385 408 q 345 403 359 408 q 339 364 339 389 l 339 245 l 203 245 l 203 361 q 195 404 203 382 q 160 408 178 408 l 40 408 l 40 545 l 155 545 q 199 553 177 545 q 203 587 203 567 l 203 711 l 339 711 l 339 590 q 345 550 339 564 z "},",":{"ha":253,"x_min":28,"x_max":233,"o":"m 75 46 q 62 79 75 63 q 28 102 51 98 q 62 122 52 104 q 75 157 75 138 q 109 168 91 157 q 132 201 127 180 q 151 168 132 181 q 187 158 164 158 q 200 121 187 139 q 233 98 210 106 q 200 78 212 94 q 187 46 187 62 q 170 -57 187 -22 q 49 -135 131 -129 q 100 -98 81 -129 q 121 -33 121 -71 q 104 20 121 -4 q 75 46 94 36 z "},"-":{"ha":554,"x_min":40,"x_max":507,"o":"m 507 408 l 385 408 q 315 389 340 408 q 272 317 279 365 q 229 389 268 363 q 160 408 202 408 l 40 408 l 40 545 l 155 545 q 225 567 195 545 q 271 633 262 591 q 313 566 278 591 q 382 545 338 545 l 507 545 l 507 408 z "},".":{"ha":253,"x_min":33,"x_max":239,"o":"m 79 0 q 68 35 79 22 q 33 56 56 54 q 68 77 56 58 q 79 111 79 92 q 114 122 94 111 q 136 157 132 138 q 157 122 138 137 q 192 113 168 115 q 204 77 192 97 q 239 53 214 60 q 204 33 218 51 q 192 0 192 15 q 158 -9 174 0 q 138 -47 138 -26 q 115 -9 136 -27 q 79 0 98 0 z "},"/":{"ha":359,"x_min":7,"x_max":358,"o":"m 136 614 l 225 1112 l 358 1090 l 271 589 q 268 561 268 564 q 279 515 268 536 q 340 464 297 477 q 265 429 300 462 q 231 366 236 399 l 140 -149 l 7 -125 l 97 392 q 100 422 100 422 q 90 464 100 445 q 28 519 74 505 q 106 549 77 519 q 136 614 131 571 z "},":":{"ha":253,"x_min":33,"x_max":239,"o":"m 79 0 q 68 35 79 22 q 33 56 56 54 q 68 77 56 58 q 79 111 79 92 q 114 122 94 111 q 136 157 132 138 q 157 122 138 137 q 192 113 168 115 q 204 77 192 97 q 239 53 214 60 q 204 33 218 51 q 192 0 192 15 q 158 -9 174 0 q 138 -47 138 -26 q 115 -9 136 -27 q 79 0 98 0 m 79 465 q 68 498 79 488 q 33 521 56 519 q 68 542 54 521 q 79 576 79 555 q 114 587 101 576 q 136 621 132 600 q 157 587 138 601 q 192 576 168 578 q 204 541 192 561 q 239 518 218 522 q 204 497 220 516 q 192 465 192 481 q 158 454 172 465 q 138 418 138 441 q 115 454 136 439 q 79 465 101 465 z "},";":{"ha":253,"x_min":28,"x_max":233,"o":"m 75 475 q 62 509 75 492 q 28 530 52 528 q 62 551 52 532 q 75 586 75 568 q 109 597 91 586 q 132 632 127 610 q 151 597 132 610 q 187 587 168 587 q 200 550 187 570 q 233 528 210 534 q 200 507 211 523 q 187 475 187 491 q 153 465 169 475 q 132 428 132 449 q 110 465 132 449 q 75 475 94 475 m 75 46 q 62 79 75 63 q 28 102 51 98 q 62 122 52 104 q 75 157 75 138 q 109 168 91 157 q 132 201 127 180 q 151 168 132 181 q 187 158 164 158 q 200 121 187 139 q 233 98 210 106 q 200 78 212 94 q 187 46 187 62 q 170 -57 187 -22 q 49 -135 131 -129 q 100 -98 81 -129 q 121 -33 121 -71 q 104 20 121 -4 q 75 46 94 36 z "},"?":{"ha":536,"x_min":45,"x_max":494,"o":"m 45 721 l 45 856 q 85 951 45 911 q 184 991 127 991 l 359 991 q 454 949 414 991 q 494 854 494 909 l 494 732 q 479 664 494 691 q 440 607 465 633 q 411 574 430 595 q 382 542 391 553 q 330 465 349 503 q 315 385 315 430 l 315 271 l 178 271 l 178 382 q 200 490 178 446 q 268 603 220 536 q 315 664 304 651 q 347 720 339 696 q 359 782 359 746 q 332 836 359 812 q 267 856 303 856 q 205 839 234 856 q 179 794 179 825 l 179 721 l 45 721 m 196 0 q 184 35 196 18 q 149 56 170 54 q 184 77 170 58 q 196 111 196 94 q 229 122 209 111 q 253 157 249 136 q 272 122 255 138 q 309 113 282 115 q 321 77 309 93 q 354 53 330 60 q 321 33 332 48 q 309 0 309 19 q 273 -9 290 0 q 254 -47 254 -25 q 231 -9 252 -28 q 196 0 216 0 z "},"A":{"ha":947,"x_min":45,"x_max":903,"o":"m 321 359 l 271 225 l 361 225 l 361 0 l 271 0 q 233 21 252 0 q 203 68 209 45 q 172 21 199 51 q 134 0 154 0 l 45 0 l 45 225 l 134 225 l 158 298 q 161 317 161 311 q 140 374 161 335 q 89 428 121 410 q 138 461 91 429 q 187 498 155 473 q 239 551 216 524 q 269 612 258 580 l 325 766 l 269 766 l 269 991 l 404 991 q 441 971 423 991 q 473 924 467 944 q 504 971 481 947 q 542 991 527 991 l 675 991 l 675 766 l 623 766 l 675 611 q 746 498 695 555 q 796 454 775 467 q 856 427 813 443 q 849 420 854 425 q 833 406 844 415 q 808 378 818 395 q 781 315 781 334 q 785 294 781 304 l 812 225 l 903 225 l 903 0 l 812 0 q 775 21 793 0 q 745 68 752 41 q 714 21 741 53 q 675 0 695 0 l 586 0 l 586 225 l 675 225 l 627 359 l 321 359 m 475 766 l 371 496 l 576 496 l 475 766 z "},"B":{"ha":839,"x_min":43,"x_max":811,"o":"m 315 991 l 585 991 q 681 950 637 991 q 720 869 720 913 l 720 851 q 743 789 720 825 q 810 743 765 754 q 742 701 764 737 q 720 632 722 677 l 720 582 q 713 551 720 567 q 675 518 699 526 q 708 486 695 507 q 721 452 721 465 l 721 400 q 743 339 721 368 q 811 292 768 302 q 743 252 768 288 q 721 179 723 226 l 721 135 q 676 40 721 83 q 581 0 634 0 l 315 0 q 278 21 296 0 q 248 68 255 41 q 215 21 239 45 q 178 0 199 0 l 43 0 l 43 225 l 178 225 l 179 406 q 160 476 179 450 q 89 518 134 514 q 160 562 138 522 q 178 632 178 587 l 178 766 l 45 766 l 45 991 l 171 991 q 215 971 197 991 q 248 924 239 947 q 278 971 254 949 q 315 991 298 991 m 496 452 l 315 452 l 315 225 l 585 225 l 585 363 q 555 422 585 393 q 496 452 523 452 m 585 766 l 315 766 l 315 586 l 469 586 q 553 604 532 586 q 585 667 585 625 l 585 766 z "},"C":{"ha":694,"x_min":14,"x_max":646,"o":"m 241 0 l 464 0 q 503 21 486 0 q 533 68 526 47 q 564 21 540 47 q 603 0 583 0 l 644 0 l 644 314 l 555 314 l 555 225 l 241 225 l 241 406 q 262 476 241 447 q 330 517 291 511 q 264 562 292 525 q 241 632 241 593 l 241 765 l 554 765 l 554 675 l 646 675 l 646 991 l 603 991 q 564 971 585 991 q 533 924 541 947 q 503 971 526 943 q 464 993 483 993 l 243 993 q 149 947 192 993 q 115 903 123 918 q 104 856 104 883 l 104 632 q 86 562 104 590 q 14 518 58 522 q 86 476 57 516 q 104 406 104 452 l 104 135 q 115 89 104 112 q 150 46 122 76 q 241 0 196 0 z "},"D":{"ha":825,"x_min":43,"x_max":810,"o":"m 585 0 l 315 0 q 278 21 296 0 q 248 68 255 41 q 215 21 239 45 q 178 0 199 0 l 43 0 l 43 225 l 178 225 l 178 407 q 160 476 178 450 q 89 518 136 514 q 160 562 136 522 q 178 632 178 587 l 178 766 l 45 766 l 45 993 l 178 993 q 215 971 197 993 q 248 924 239 947 q 278 971 254 949 q 315 993 298 993 l 585 993 q 681 950 635 993 q 721 854 721 911 l 721 631 q 743 562 721 594 q 810 515 765 526 q 742 475 766 509 q 720 404 720 446 l 720 134 q 681 39 720 79 q 585 0 651 10 m 585 225 l 585 765 l 315 765 l 315 632 q 339 564 315 597 q 406 518 364 528 q 338 478 359 512 q 315 407 315 448 l 315 225 l 585 225 z "},"E":{"ha":720,"x_min":43,"x_max":675,"o":"m 673 0 l 632 0 q 593 21 612 0 q 562 68 570 44 q 532 21 557 45 q 493 0 515 0 l 315 0 q 278 21 296 0 q 248 68 255 41 q 215 21 239 45 q 178 0 199 0 l 43 0 l 43 225 l 178 225 l 179 406 q 160 476 179 450 q 89 518 134 514 q 160 562 138 522 q 178 632 178 587 l 178 766 l 45 766 l 45 991 l 178 991 q 215 971 197 991 q 248 924 239 947 q 278 971 254 949 q 315 991 298 991 l 493 991 q 532 971 513 991 q 562 924 556 945 q 593 971 570 947 q 632 991 614 991 l 675 991 l 675 675 l 585 675 l 585 766 l 314 766 l 314 586 l 450 586 l 450 631 l 541 631 l 541 587 q 521 549 541 576 q 472 518 493 523 q 521 488 486 515 q 541 450 541 472 l 541 406 l 450 406 l 450 452 l 315 452 l 315 225 l 585 225 l 585 314 l 673 314 l 673 0 z "},"F":{"ha":720,"x_min":45,"x_max":675,"o":"m 406 0 l 315 0 q 278 21 296 0 q 248 68 255 41 q 215 21 243 47 q 178 0 199 0 l 90 0 l 90 225 l 178 225 l 179 406 q 160 476 179 450 q 89 518 134 514 q 160 562 138 522 q 178 632 178 587 l 178 766 l 45 766 l 45 991 l 178 991 q 215 971 197 991 q 248 924 239 949 q 278 971 254 949 q 315 991 298 991 l 493 991 q 532 971 513 991 q 562 924 556 945 q 593 971 570 947 q 632 991 614 991 l 675 991 l 675 675 l 585 675 l 585 766 l 314 766 l 314 586 l 450 586 l 450 631 l 541 631 l 541 587 q 521 549 541 576 q 472 518 493 523 q 521 488 486 515 q 541 450 541 472 l 541 406 l 450 406 l 450 452 l 315 452 l 315 225 l 406 225 l 406 0 z "},"G":{"ha":722,"x_min":4,"x_max":681,"o":"m 232 0 l 454 0 q 493 21 477 0 q 524 68 517 47 q 554 21 529 49 q 593 0 573 0 l 637 0 l 636 452 l 681 452 l 681 541 l 411 541 l 411 452 l 546 452 l 546 225 l 232 225 l 232 408 q 253 479 232 450 q 321 519 279 513 q 254 566 281 528 q 232 633 232 595 l 232 766 l 546 766 l 546 675 l 636 675 l 636 991 l 593 991 q 554 971 576 991 q 524 924 530 945 q 493 971 517 943 q 454 991 477 991 l 233 991 q 139 947 185 991 q 94 856 94 905 l 94 632 q 77 562 94 589 q 4 518 48 522 q 77 476 47 516 q 94 406 94 452 l 94 135 q 106 89 94 111 q 140 46 115 73 q 232 0 186 0 z "},"H":{"ha":814,"x_min":45,"x_max":766,"o":"m 271 452 l 271 225 l 361 225 l 361 0 l 271 0 q 233 21 252 0 q 203 68 209 45 q 172 21 199 51 q 134 0 154 0 l 45 0 l 45 225 l 136 225 l 135 406 q 117 476 135 450 q 45 518 89 514 q 117 562 90 522 q 135 632 135 587 l 136 766 l 45 766 l 45 991 l 134 991 q 172 971 151 991 q 203 924 199 943 q 233 971 210 949 q 271 991 254 991 l 361 991 l 361 766 l 271 766 l 271 586 l 541 586 l 541 766 l 452 766 l 452 991 l 539 991 q 576 971 557 991 q 608 924 601 949 q 639 971 615 948 q 676 991 660 991 l 766 991 l 766 766 l 676 766 l 676 632 q 700 562 676 600 q 766 517 726 526 q 699 476 724 511 q 676 406 676 446 l 676 225 l 766 225 l 766 0 l 676 0 q 639 21 658 0 q 608 68 614 45 q 576 21 604 48 q 539 0 560 0 l 450 0 l 450 225 l 541 225 l 541 452 l 271 452 z "},"I":{"ha":441,"x_min":62,"x_max":380,"o":"m 290 396 l 290 225 l 380 225 l 380 0 l 290 0 q 253 21 271 0 q 222 68 230 41 q 191 21 217 52 q 153 0 174 0 l 62 0 l 62 225 l 153 225 l 154 396 q 135 471 154 441 q 62 518 106 514 q 135 570 106 522 q 153 644 153 598 l 153 766 l 62 766 l 62 991 l 153 991 q 191 971 171 991 q 222 924 216 942 q 253 971 229 949 q 290 991 273 991 l 380 991 l 380 766 l 289 766 l 289 644 q 309 570 289 599 q 380 518 341 522 q 309 471 340 516 q 290 396 290 448 z "},"J":{"ha":675,"x_min":45,"x_max":632,"o":"m 399 0 l 225 0 q 187 21 204 0 q 155 68 162 48 q 125 21 149 44 q 87 0 106 0 l 45 0 l 45 314 l 134 314 l 134 225 l 404 225 l 404 406 q 386 476 404 451 q 314 518 359 514 q 386 562 363 522 q 404 632 404 587 l 404 766 l 314 766 l 314 991 l 404 991 q 441 971 423 991 q 473 924 465 947 q 504 971 481 947 q 542 991 527 991 l 632 991 l 632 766 l 541 766 l 541 625 q 559 555 541 586 q 632 511 584 519 q 559 469 587 507 q 541 406 541 444 l 541 135 q 497 43 541 86 q 399 0 453 0 z "},"K":{"ha":808,"x_min":45,"x_max":766,"o":"m 541 704 l 539 766 l 450 766 l 450 991 l 539 991 q 576 971 557 991 q 608 924 604 946 q 639 971 615 948 q 676 991 660 991 l 766 991 l 766 766 l 675 766 l 675 646 q 665 602 675 623 q 640 562 658 580 q 561 518 601 522 q 637 479 602 514 q 664 440 653 463 q 675 396 675 416 l 675 225 l 765 225 l 765 0 l 676 0 q 639 21 658 0 q 608 68 614 45 q 576 21 604 48 q 539 0 560 0 l 450 0 l 450 225 l 539 225 l 541 315 q 505 399 541 357 q 404 452 463 452 l 271 452 l 271 225 l 359 225 l 359 0 l 271 0 q 233 21 252 0 q 203 68 209 45 q 172 21 199 51 q 134 0 154 0 l 45 0 l 45 225 l 134 225 l 134 406 q 117 476 134 450 q 45 518 89 514 q 117 562 90 522 q 134 632 134 589 l 134 766 l 45 766 l 45 991 l 134 991 q 172 971 151 991 q 203 924 199 943 q 233 971 210 949 q 271 991 254 991 l 359 991 l 359 766 l 271 766 l 271 586 l 399 586 q 497 629 450 586 q 541 704 541 669 z "},"L":{"ha":720,"x_min":43,"x_max":673,"o":"m 315 406 l 315 225 l 585 225 l 585 314 l 673 314 l 673 0 l 632 0 q 593 21 612 0 q 562 68 570 44 q 532 21 558 48 q 493 0 515 0 l 315 0 q 278 21 296 0 q 248 68 255 41 q 215 21 243 47 q 178 0 199 0 l 43 0 l 43 225 l 178 225 l 179 406 q 160 476 179 450 q 89 518 136 514 q 160 562 136 522 q 178 632 178 587 l 178 766 l 45 766 l 45 991 l 178 991 q 215 971 197 991 q 248 924 239 949 q 278 971 254 949 q 315 991 298 991 l 449 991 l 449 766 l 317 766 l 317 632 q 335 562 317 588 q 407 518 362 522 q 335 476 363 516 q 315 406 315 449 z "},"M":{"ha":1124,"x_min":43,"x_max":1082,"o":"m 134 225 l 134 404 q 117 475 134 449 q 45 517 89 513 q 117 561 90 523 q 134 631 134 587 l 134 766 l 43 766 l 43 991 l 132 991 q 171 971 151 991 q 201 924 197 941 q 232 971 208 949 q 271 991 252 991 l 404 991 l 561 425 l 720 991 l 856 991 q 895 971 873 991 q 925 924 921 941 q 956 971 932 949 q 993 991 977 991 l 1080 991 l 1080 766 l 993 766 l 993 632 q 1010 562 993 589 q 1082 518 1038 522 q 1010 476 1039 516 q 993 406 993 451 l 993 225 l 1082 225 l 1082 0 l 993 0 q 954 21 972 0 q 924 68 929 47 q 893 21 920 53 q 854 0 876 0 l 765 0 l 765 225 l 856 225 l 856 766 l 765 766 l 629 271 l 496 271 l 358 766 l 271 766 l 271 225 l 361 225 l 361 0 l 271 0 q 233 21 252 0 q 203 68 209 45 q 172 21 199 50 q 134 0 154 0 l 45 0 l 45 225 l 134 225 z "},"N":{"ha":947,"x_min":43,"x_max":901,"o":"m 134 225 l 134 404 q 117 475 134 449 q 45 517 89 513 q 117 561 90 523 q 134 631 134 587 l 134 766 l 43 766 l 43 991 l 132 991 q 171 971 151 991 q 201 924 197 941 q 232 971 208 949 q 271 991 252 991 l 314 991 l 675 278 l 675 766 l 586 766 l 586 991 l 675 991 q 714 971 690 991 q 745 924 741 941 q 775 971 751 949 q 812 991 795 991 l 901 991 l 901 766 q 840 742 868 766 q 811 685 811 717 l 811 632 q 829 562 811 588 q 901 518 857 522 q 829 476 858 516 q 812 406 812 452 l 812 225 l 901 225 l 901 0 l 812 0 q 774 21 792 0 q 743 68 751 41 q 713 21 740 53 q 673 0 696 0 l 631 0 l 631 90 l 271 822 l 271 225 l 361 225 l 361 0 l 271 0 q 233 21 252 0 q 203 68 209 45 q 172 21 199 50 q 134 0 154 0 l 45 0 l 45 225 l 134 225 z "},"O":{"ha":796,"x_min":43,"x_max":764,"o":"m 539 -20 l 271 -20 q 176 24 220 -20 q 134 117 134 66 l 134 406 q 115 476 134 450 q 43 518 87 514 q 115 562 89 522 q 134 632 134 587 l 134 875 q 174 968 134 930 q 272 1011 215 1011 l 539 1011 q 633 968 588 1011 q 675 875 675 929 l 675 632 q 697 562 675 598 q 764 517 724 526 q 696 476 722 511 q 673 406 673 446 l 673 117 q 632 24 673 67 q 539 -20 598 -10 m 271 766 l 271 633 q 293 566 271 598 q 359 519 323 527 q 292 479 320 515 q 271 408 271 449 l 269 225 l 539 225 l 539 406 q 521 476 539 448 q 449 518 493 514 q 521 562 492 522 q 539 632 539 591 l 539 766 l 271 766 z "},"P":{"ha":714,"x_min":45,"x_max":675,"o":"m 271 452 l 271 225 l 359 225 l 359 0 l 271 0 q 233 21 252 0 q 203 68 209 45 q 172 21 199 50 q 134 0 154 0 l 45 0 l 45 225 l 134 225 l 134 406 q 117 476 134 450 q 45 518 89 514 q 117 562 90 522 q 134 632 134 589 l 134 766 l 45 766 l 45 991 l 134 991 q 172 971 151 991 q 203 924 199 943 q 233 971 210 949 q 271 991 254 991 l 524 991 q 633 951 595 991 q 675 840 675 912 l 675 553 q 667 511 675 534 q 646 478 660 491 q 566 452 618 452 l 271 452 m 539 586 l 539 766 l 271 766 l 271 586 l 539 586 z "},"Q":{"ha":796,"x_min":43,"x_max":764,"o":"m 571 -53 q 539 0 550 -32 l 271 0 q 174 43 218 0 q 134 135 134 83 l 134 406 q 115 476 134 450 q 43 518 87 514 q 115 562 89 522 q 134 632 134 587 l 134 856 q 174 951 134 913 q 272 993 213 993 l 539 993 q 633 951 592 993 q 675 856 675 912 l 675 632 q 697 562 675 598 q 764 517 724 526 q 696 476 722 511 q 673 406 673 446 l 673 135 q 660 90 673 113 q 629 62 650 71 q 673 16 659 37 q 718 -90 711 -39 l 654 -90 q 571 -53 608 -90 m 539 225 l 539 406 q 521 476 539 448 q 449 518 493 514 q 521 562 492 522 q 539 632 539 591 l 539 766 l 271 766 l 271 633 q 293 566 271 598 q 359 519 323 527 q 292 479 320 515 q 271 408 271 449 l 271 328 q 281 301 271 311 q 311 279 289 291 q 328 269 320 274 q 339 262 336 264 q 500 222 399 222 q 539 225 519 222 z "},"R":{"ha":762,"x_min":41,"x_max":721,"o":"m 363 452 l 271 452 l 271 225 l 359 225 l 359 0 l 271 0 q 233 21 252 0 q 203 68 209 45 q 172 21 199 50 q 134 0 154 0 l 43 0 l 41 225 l 134 225 l 134 406 q 117 476 134 450 q 45 518 89 514 q 117 562 90 522 q 134 632 134 589 l 134 766 l 45 766 l 45 991 l 134 991 q 172 971 151 991 q 203 924 199 943 q 233 971 210 949 q 271 991 254 991 l 496 991 q 593 951 555 991 q 632 856 632 912 l 632 811 q 648 742 632 766 q 721 697 677 703 q 648 656 675 693 q 629 590 631 629 q 623 543 629 555 q 600 514 618 532 q 534 476 568 486 q 607 408 578 457 q 631 334 631 362 l 631 225 l 720 225 l 720 0 l 494 0 l 494 318 q 452 403 494 358 q 407 440 427 427 q 363 452 389 452 m 489 586 l 489 766 l 271 766 l 271 586 l 489 586 z "},"S":{"ha":840,"x_min":43,"x_max":811,"o":"m 134 545 l 134 586 q 115 657 134 629 q 43 699 88 694 q 115 743 88 703 q 134 812 134 770 l 134 854 q 171 949 134 909 q 272 991 212 991 l 517 991 q 554 971 534 991 q 586 924 576 951 q 616 971 590 943 q 654 991 635 991 l 697 991 l 697 676 l 607 676 l 607 766 l 271 766 l 271 586 l 314 586 q 383 604 356 586 q 428 676 422 633 q 469 604 432 631 q 541 586 497 586 l 611 586 q 688 555 655 586 q 721 486 721 524 l 721 407 q 743 340 721 372 q 811 293 768 303 q 743 253 766 287 q 721 182 723 226 l 721 135 q 681 40 721 81 q 586 0 650 10 l 269 0 q 231 21 249 0 q 200 68 204 51 q 170 21 194 45 q 132 0 151 0 l 89 0 l 89 314 l 178 314 l 178 225 l 585 225 l 585 452 l 534 452 q 464 432 494 452 q 422 359 425 405 q 378 432 415 406 q 309 452 346 452 l 228 452 q 170 478 200 452 q 134 545 134 507 z "},"T":{"ha":663,"x_min":43,"x_max":631,"o":"m 406 766 l 406 625 q 424 555 406 583 q 496 511 447 519 q 424 469 450 507 q 407 399 407 444 l 407 225 l 496 225 l 496 0 l 407 0 q 368 21 389 0 q 339 68 346 42 q 307 21 332 48 q 269 0 290 0 l 179 0 l 179 225 l 269 225 l 269 406 q 252 476 269 449 q 179 518 224 514 q 252 562 225 522 q 269 632 269 589 l 269 766 l 134 766 l 134 675 l 43 675 l 43 1036 l 90 1036 l 90 991 l 268 991 q 306 971 286 991 q 338 924 332 942 q 368 971 344 949 q 406 991 389 991 l 585 991 l 585 1036 l 631 1036 l 631 675 l 539 675 l 539 766 l 406 766 z "},"U":{"ha":802,"x_min":43,"x_max":768,"o":"m 675 766 l 675 632 q 697 562 675 598 q 764 517 724 526 q 696 476 722 511 q 673 406 673 446 l 673 135 q 633 43 673 83 q 539 0 595 7 l 271 0 q 176 43 219 0 q 134 135 134 85 l 134 406 q 115 476 134 450 q 43 518 87 514 q 115 562 89 522 q 134 632 134 587 l 134 766 l 43 766 l 43 991 l 132 991 q 171 971 151 991 q 201 924 197 941 q 232 971 208 949 q 271 991 252 991 l 359 991 l 359 766 l 271 766 l 271 633 q 293 566 271 596 q 359 519 323 527 q 292 479 320 515 q 271 408 271 449 l 271 225 l 539 225 l 539 406 q 521 476 539 448 q 449 518 493 514 q 521 562 492 522 q 539 632 539 591 l 539 766 l 452 766 l 452 991 l 541 991 q 578 971 559 991 q 610 924 605 942 q 640 971 616 948 q 677 991 661 991 l 768 991 l 768 766 l 675 766 z "},"V":{"ha":935,"x_min":43,"x_max":900,"o":"m 396 441 l 475 228 l 555 440 q 562 481 562 462 q 559 509 562 501 q 507 574 548 553 q 532 571 529 571 q 590 590 558 571 q 632 648 620 610 l 673 766 l 583 766 l 583 991 l 673 991 q 711 971 692 991 q 743 924 737 942 q 772 971 748 949 q 811 991 795 991 l 900 991 l 900 766 l 803 766 l 745 608 q 739 564 739 564 q 743 536 739 553 q 789 469 753 496 q 765 472 764 472 q 711 456 738 472 q 667 396 690 441 l 604 224 l 676 224 l 676 0 l 542 0 q 504 20 524 0 q 472 66 475 52 q 441 20 465 43 q 404 0 425 0 l 269 0 l 269 225 l 336 225 l 273 390 q 256 429 263 415 q 231 452 250 439 q 174 468 203 468 q 149 465 172 468 q 201 532 191 487 q 204 555 204 544 q 196 604 204 564 l 132 766 l 43 766 l 43 991 l 132 991 q 171 971 151 991 q 201 924 197 941 q 232 971 208 949 q 271 991 252 991 l 359 991 l 359 766 l 269 766 l 315 653 q 364 599 331 619 q 441 576 392 578 q 392 517 404 555 q 386 484 386 496 q 396 441 386 461 z "},"W":{"ha":1307,"x_min":43,"x_max":1263,"o":"m 650 593 l 536 225 l 585 225 l 585 0 l 496 0 q 458 20 475 0 q 427 66 431 51 q 396 20 422 44 q 358 0 378 0 l 269 0 l 269 225 l 313 225 l 258 387 q 215 449 247 428 q 160 465 193 465 q 134 463 147 465 q 187 529 175 486 q 192 568 192 549 q 187 603 192 585 l 132 766 l 43 766 l 43 991 l 132 991 q 171 971 151 991 q 201 924 197 941 q 232 971 208 949 q 271 991 252 991 l 359 991 l 359 766 l 269 766 l 429 271 l 582 766 l 493 766 l 493 991 l 582 991 q 619 971 601 991 q 652 924 646 943 q 682 971 659 949 q 720 991 703 991 l 810 991 l 810 766 l 713 766 l 884 268 l 1035 766 l 946 766 l 946 991 l 1035 991 q 1074 971 1055 991 q 1104 924 1097 946 q 1135 971 1111 948 q 1174 991 1156 991 l 1263 991 l 1263 766 l 1165 766 l 1116 603 q 1109 571 1109 590 q 1118 526 1109 555 q 1174 461 1135 481 q 1147 464 1159 464 q 1090 447 1116 464 q 1046 386 1056 426 l 993 225 l 1035 225 l 1035 0 l 947 0 q 909 20 927 0 q 878 66 882 47 q 847 20 871 43 q 810 0 831 0 l 720 0 l 720 225 l 774 225 l 650 593 z "},"X":{"ha":827,"x_min":43,"x_max":789,"o":"m 692 766 l 482 497 l 700 225 l 789 225 l 789 0 l 700 0 q 661 21 680 0 q 631 68 637 47 q 600 21 625 45 q 562 0 581 0 l 472 0 l 472 225 l 562 225 l 415 410 l 271 225 l 359 225 l 359 0 l 271 0 q 232 21 248 0 q 201 68 205 51 q 171 21 195 45 q 132 0 152 0 l 43 0 l 43 225 l 140 225 l 350 493 l 132 766 l 43 766 l 43 991 l 132 991 q 171 971 151 991 q 201 924 197 941 q 232 971 208 949 q 271 991 252 991 l 359 991 l 359 766 l 269 766 l 416 581 l 562 766 l 472 766 l 472 991 l 562 991 q 600 971 581 991 q 632 924 626 942 q 661 971 637 949 q 700 991 684 991 l 789 991 l 789 766 l 692 766 z "},"Y":{"ha":940,"x_min":43,"x_max":903,"o":"m 831 766 l 607 539 q 586 522 608 539 q 553 492 570 512 q 539 454 539 471 q 553 424 539 439 q 587 395 563 409 q 632 382 610 382 q 558 334 589 382 q 541 262 541 302 l 541 225 l 631 225 l 631 0 l 541 0 q 503 21 522 0 q 472 68 478 45 q 440 21 465 47 q 403 0 424 0 l 313 0 l 313 225 l 404 225 l 404 269 q 385 340 404 313 q 355 372 372 361 q 313 382 339 382 q 376 407 345 382 q 406 457 406 432 q 379 503 406 475 q 343 542 353 534 l 118 766 l 43 766 l 43 991 l 132 991 q 171 971 151 991 q 201 924 197 941 q 232 971 208 949 q 271 991 252 991 l 359 991 l 359 766 l 245 766 l 475 530 l 699 766 l 586 766 l 586 991 l 675 991 q 714 971 690 991 q 745 924 741 941 q 775 971 751 949 q 812 991 795 991 l 903 991 l 903 766 l 831 766 z "},"Z":{"ha":707,"x_min":43,"x_max":673,"o":"m 161 225 l 585 225 l 585 314 l 673 314 l 673 0 l 632 0 q 593 21 612 0 q 562 68 570 44 q 532 21 558 48 q 493 0 515 0 l 225 0 q 187 21 208 0 q 157 68 164 42 q 125 21 150 47 q 87 0 109 0 l 43 0 l 43 243 l 203 404 q 243 454 231 434 q 271 543 271 500 q 265 589 271 570 q 314 581 294 581 q 376 597 343 581 q 447 652 413 614 l 559 766 l 134 766 l 134 675 l 43 675 l 43 991 l 87 991 q 125 971 104 991 q 155 924 149 949 q 187 971 164 949 q 225 991 206 991 l 494 991 q 533 971 511 991 q 562 924 555 951 q 595 971 570 945 q 632 991 613 991 l 673 991 l 673 749 l 519 590 q 473 541 481 553 q 443 447 443 494 q 447 407 443 429 q 415 410 420 410 q 326 382 375 410 q 290 357 302 370 q 248 313 260 327 l 161 225 z "},"[":{"ha":493,"x_min":40,"x_max":457,"o":"m 132 -136 l 132 380 q 113 452 132 422 q 40 493 85 489 q 113 536 85 497 q 132 606 132 567 l 132 1126 l 457 1126 l 457 1036 l 268 1036 l 268 608 q 290 541 268 573 q 357 493 318 505 q 289 453 317 491 q 268 382 268 425 l 268 -46 l 457 -46 l 457 -136 l 132 -136 z "},"\\":{"ha":359,"x_min":5,"x_max":357,"o":"m 139 1112 l 228 614 q 257 549 232 570 q 336 519 286 522 q 272 464 291 505 q 264 422 264 446 q 267 392 264 407 l 357 -125 l 224 -149 l 132 366 q 98 429 127 402 q 24 464 64 462 q 85 515 63 475 q 96 561 96 537 q 93 589 96 564 l 5 1090 l 139 1112 z "},"]":{"ha":493,"x_min":35,"x_max":452,"o":"m 361 380 l 361 -136 l 35 -136 l 35 -46 l 225 -46 l 225 382 q 203 453 225 425 q 135 493 178 489 q 201 541 176 505 q 225 608 225 577 l 225 1036 l 35 1036 l 35 1126 l 361 1126 l 361 606 q 380 536 361 569 q 452 493 407 497 q 380 452 406 489 q 361 380 361 422 z "},"a":{"ha":568,"x_min":35,"x_max":533,"o":"m 36 122 l 36 269 q 81 359 36 311 q 175 406 125 406 l 351 406 l 351 494 l 81 494 l 81 406 l 35 406 l 35 689 q 77 668 58 685 q 107 619 104 635 q 138 668 113 644 q 175 688 156 688 l 309 688 q 406 647 361 688 q 444 551 444 611 l 444 179 l 533 179 l 533 -12 l 490 -12 q 452 7 475 -12 q 422 56 427 34 q 390 7 416 37 q 353 -12 373 -12 l 174 -12 q 77 25 116 -12 q 36 122 36 66 m 127 179 l 351 179 l 351 314 l 127 314 l 127 179 z "},"b":{"ha":568,"x_min":36,"x_max":536,"o":"m 222 812 l 222 675 l 397 675 q 493 632 450 675 q 536 542 536 585 l 536 138 q 492 49 536 96 q 400 3 448 3 l 221 3 q 183 22 203 3 q 151 71 157 53 q 121 22 144 45 q 83 3 102 3 l 40 3 l 40 182 l 127 182 l 127 812 l 36 812 l 36 993 l 81 993 q 118 974 97 993 q 149 925 142 951 q 180 974 155 945 q 218 993 201 993 l 262 993 l 262 812 l 222 812 m 222 182 l 446 182 l 446 497 l 222 497 l 222 182 z "},"c":{"ha":486,"x_min":43,"x_max":444,"o":"m 443 271 l 443 122 q 407 31 443 68 q 309 -12 366 -12 l 180 -12 q 87 21 123 -12 q 43 121 43 66 l 43 551 q 79 653 43 616 q 179 688 117 688 l 304 688 q 342 668 320 688 q 372 619 369 637 q 404 668 378 638 q 444 689 419 685 l 444 406 l 399 406 l 399 494 l 135 494 l 135 179 l 397 179 l 397 271 l 443 271 z "},"d":{"ha":587,"x_min":49,"x_max":549,"o":"m 363 675 l 363 811 l 322 811 l 322 991 l 367 991 q 404 971 386 991 q 436 924 429 944 q 465 971 440 945 q 504 991 490 991 l 549 991 l 549 811 l 454 811 l 454 179 l 545 179 l 545 0 l 501 0 q 464 21 482 0 q 433 68 437 46 q 401 21 425 47 q 364 0 385 0 l 184 0 q 89 40 129 0 q 49 135 49 80 l 49 539 q 90 635 49 593 q 187 675 128 675 l 363 675 m 139 179 l 363 179 l 363 494 l 139 494 l 139 179 z "},"e":{"ha":479,"x_min":35,"x_max":441,"o":"m 355 271 l 127 271 l 127 179 l 396 179 l 396 225 l 441 225 l 441 122 q 403 31 441 71 q 307 -12 364 -12 l 174 -12 q 79 26 120 -12 q 35 121 35 69 l 35 551 q 79 647 35 604 q 172 688 124 688 l 306 688 q 404 644 363 688 q 440 551 440 606 l 440 350 q 416 297 440 321 q 355 271 388 271 m 127 494 l 127 406 l 351 406 l 351 494 l 127 494 z "},"f":{"ha":493,"x_min":49,"x_max":450,"o":"m 224 494 l 224 179 l 325 179 l 325 0 l 258 0 q 221 21 237 0 q 189 68 195 50 q 160 21 184 45 q 121 0 139 0 l 49 0 l 49 179 l 135 179 l 135 854 q 144 901 135 880 q 179 946 153 917 q 273 991 222 991 l 450 991 l 450 811 l 224 811 l 224 676 l 313 676 l 313 494 l 224 494 z "},"g":{"ha":650,"x_min":43,"x_max":631,"o":"m 575 627 q 494 583 546 601 l 494 541 l 494 366 q 465 300 494 329 q 392 269 427 269 l 335 269 q 297 241 319 269 q 269 179 271 212 l 404 179 q 500 139 462 179 q 541 45 541 98 l 541 -5 q 503 -100 541 -65 q 403 -136 465 -136 l 182 -136 q 82 -97 123 -136 q 43 -5 43 -58 l 43 37 q 85 139 43 97 q 123 167 108 160 q 178 179 146 176 l 178 271 q 170 273 175 271 q 157 277 164 275 q 135 285 149 279 q 118 294 123 289 q 89 364 89 323 l 89 534 q 131 633 89 591 q 229 675 172 675 l 358 675 q 424 656 374 675 q 439 643 427 656 q 461 632 449 635 q 518 646 496 632 q 539 686 539 661 q 524 713 537 700 q 493 722 512 722 l 493 811 l 631 811 l 631 720 q 616 673 631 692 q 575 627 604 654 m 135 62 l 135 -14 l 444 -14 l 444 62 l 135 62 m 180 521 l 180 387 l 404 387 l 404 521 l 180 521 z "},"h":{"ha":694,"x_min":45,"x_max":650,"o":"m 465 179 l 465 494 l 229 494 l 229 179 l 325 179 l 325 0 l 258 0 q 221 21 237 0 q 189 68 196 47 q 160 21 184 45 q 121 0 139 0 l 49 0 l 49 179 l 135 179 l 135 811 l 45 811 l 45 991 l 89 991 q 126 971 106 991 q 157 924 150 949 q 187 971 164 943 q 227 991 210 991 l 271 991 l 271 811 l 229 811 l 229 675 l 418 675 q 518 635 480 675 q 557 539 557 596 l 558 179 l 650 179 l 650 0 l 585 0 q 547 21 564 0 q 515 68 523 48 q 485 21 509 45 q 447 0 466 0 l 374 0 l 374 179 l 465 179 z "},"i":{"ha":367,"x_min":45,"x_max":325,"o":"m 118 828 q 106 863 118 847 q 71 884 95 881 q 106 905 92 886 q 118 939 118 920 q 151 951 134 939 q 174 985 172 963 q 195 951 176 964 q 229 940 208 940 q 243 904 229 922 q 277 882 257 884 q 243 861 258 878 q 229 828 231 849 q 196 818 207 828 q 175 782 175 806 q 153 818 173 806 q 118 828 142 828 m 229 494 l 229 179 l 325 179 l 325 0 l 258 0 q 221 21 237 0 q 189 68 196 47 q 160 21 184 45 q 121 0 139 0 l 49 0 l 49 179 l 135 179 l 135 494 l 45 494 l 45 675 l 89 675 q 126 656 107 675 q 157 607 151 631 q 187 656 164 628 q 227 675 210 675 l 271 675 l 271 494 l 229 494 z "},"j":{"ha":410,"x_min":43,"x_max":359,"o":"m 225 45 l 225 494 l 134 494 l 134 675 l 178 675 q 215 656 196 675 q 245 607 241 631 q 278 656 252 625 q 315 675 295 675 l 359 675 l 359 494 l 319 494 l 321 57 q 310 -37 321 -2 q 265 -106 299 -78 q 171 -132 232 -132 q 79 -87 116 -132 q 43 18 43 -43 l 43 90 l 90 90 l 90 45 l 225 45 m 196 827 q 184 860 196 845 q 149 882 171 880 q 184 903 168 882 q 196 937 196 918 q 229 949 213 937 q 253 982 249 960 q 272 948 255 960 q 309 937 289 937 q 321 901 309 921 q 354 879 330 888 q 321 859 332 874 q 309 827 309 844 q 273 815 293 827 q 254 779 254 802 q 231 815 252 802 q 196 827 214 827 z "},"k":{"ha":803,"x_min":45,"x_max":765,"o":"m 387 414 l 229 306 l 229 179 l 325 179 l 325 0 l 258 0 q 221 21 237 0 q 189 68 195 50 q 160 21 184 45 q 121 0 139 0 l 49 0 l 49 179 l 138 179 l 138 811 l 45 811 l 45 991 l 89 991 q 126 971 106 991 q 157 924 150 949 q 187 971 165 947 q 227 991 210 991 l 271 991 l 271 811 l 229 811 l 229 397 l 501 586 l 449 586 l 449 766 l 493 766 q 530 746 510 766 q 561 699 555 724 q 591 746 568 718 q 631 766 614 766 l 673 766 l 673 586 l 635 586 l 452 458 l 675 179 l 765 179 l 765 0 l 700 0 q 661 21 680 0 q 631 68 637 47 q 600 21 625 45 q 562 0 581 0 l 489 0 l 489 179 l 576 179 l 387 414 z "},"l":{"ha":372,"x_min":45,"x_max":325,"o":"m 229 811 l 229 179 l 325 179 l 325 0 l 258 0 q 221 21 237 0 q 189 68 196 47 q 160 21 184 45 q 121 0 139 0 l 49 0 l 49 179 l 135 176 l 135 811 l 45 811 l 45 991 l 89 991 q 126 971 106 991 q 157 924 150 949 q 187 971 164 943 q 227 991 210 991 l 271 991 l 271 811 l 229 811 z "},"m":{"ha":846,"x_min":43,"x_max":812,"o":"m 186 494 l 186 179 l 271 179 l 271 0 l 222 0 q 184 21 201 0 q 153 68 158 52 q 122 21 145 41 q 85 0 104 0 l 43 0 l 43 179 l 97 179 l 97 494 l 45 494 l 45 675 l 178 675 q 215 656 196 675 q 245 607 241 631 q 278 656 252 625 q 315 675 295 675 l 403 675 q 440 656 419 675 q 471 607 465 631 q 503 656 475 623 q 541 675 520 675 l 591 675 q 690 637 653 675 q 729 541 729 599 l 729 179 l 812 179 l 812 0 l 765 0 q 728 21 745 0 q 696 68 699 54 q 665 21 689 44 q 628 0 647 0 l 586 0 l 586 179 l 639 179 l 639 494 l 457 494 l 457 179 l 542 179 l 542 0 l 493 0 q 456 21 472 0 q 424 68 430 50 q 395 21 420 46 q 355 0 374 0 l 314 0 l 314 179 l 368 179 l 368 494 l 186 494 z "},"n":{"ha":637,"x_min":43,"x_max":591,"o":"m 186 494 l 186 179 l 271 179 l 271 0 l 222 0 q 184 21 201 0 q 153 68 158 52 q 122 21 145 41 q 85 0 104 0 l 43 0 l 43 179 l 96 179 l 96 494 l 45 494 l 45 675 l 178 675 q 215 656 196 675 q 245 607 241 631 q 278 656 252 625 q 315 675 295 675 l 371 675 q 469 635 431 675 q 507 541 507 597 l 507 179 l 591 179 l 591 0 l 545 0 q 507 21 524 0 q 475 68 482 47 q 444 21 467 41 q 407 0 426 0 l 366 0 l 366 179 l 418 179 l 418 494 l 186 494 z "},"o":{"ha":486,"x_min":43,"x_max":450,"o":"m 314 -12 l 180 -12 q 135 -1 155 -12 q 90 33 123 4 q 56 77 62 62 q 43 122 43 96 l 43 547 q 85 646 43 604 q 184 688 127 688 l 313 688 q 411 643 366 688 q 450 553 450 602 l 450 122 q 404 33 450 79 q 314 -12 365 -6 m 135 494 l 135 179 l 358 179 l 358 494 l 135 494 z "},"p":{"ha":587,"x_min":43,"x_max":547,"o":"m 232 182 l 232 46 l 328 46 l 328 -136 l 264 -136 q 221 -118 239 -136 q 189 -69 195 -90 q 183 -87 189 -75 q 179 -94 182 -91 q 172 -103 176 -98 q 160 -118 164 -114 q 107 -136 144 -136 l 43 -136 l 43 45 l 138 45 l 138 494 l 50 494 l 50 675 l 93 675 q 132 656 106 675 q 161 607 154 635 q 170 625 168 623 q 180 642 172 631 q 193 656 191 652 q 231 675 208 675 l 410 675 q 458 664 435 675 q 501 631 479 652 q 538 590 519 614 q 547 547 547 575 l 547 318 q 507 222 547 263 q 408 182 469 182 l 232 182 m 456 496 l 232 496 l 232 314 l 456 314 l 456 496 z "},"q":{"ha":587,"x_min":45,"x_max":549,"o":"m 358 46 l 358 182 l 183 182 q 86 228 130 182 q 45 318 45 271 l 45 547 q 54 593 45 576 q 85 632 62 610 q 180 675 127 675 l 359 675 q 397 656 382 675 q 429 607 425 625 q 460 656 438 635 q 497 675 483 675 l 541 675 l 541 494 l 453 494 l 453 45 l 549 45 l 549 -136 l 484 -136 q 432 -118 448 -136 q 425 -110 429 -115 q 419 -103 422 -106 q 407 -87 412 -93 q 404 -78 406 -82 q 401 -69 403 -74 q 370 -118 398 -87 q 326 -136 353 -136 l 262 -136 l 262 46 l 358 46 m 358 496 l 135 496 l 135 314 l 358 314 l 358 496 z "},"r":{"ha":625,"x_min":45,"x_max":586,"o":"m 229 494 l 229 179 l 325 179 l 325 0 l 258 0 q 221 21 237 0 q 189 68 196 47 q 160 21 184 45 q 121 0 139 0 l 49 0 l 49 179 l 135 179 l 135 494 l 45 494 l 45 675 l 113 675 q 150 656 129 675 q 180 607 174 631 q 212 656 185 623 q 250 675 233 675 l 315 675 l 315 586 q 404 654 351 629 q 513 675 450 675 l 586 675 l 586 494 l 229 494 z "},"s":{"ha":530,"x_min":45,"x_max":486,"o":"m 486 323 l 486 138 q 446 45 486 87 q 351 1 402 1 l 184 1 q 146 21 172 1 q 117 69 121 45 q 85 21 112 54 q 45 0 75 9 l 45 271 l 90 271 l 90 182 l 396 182 l 396 314 l 150 314 q 131 318 139 314 q 115 330 118 327 q 97 350 104 344 q 81 368 86 361 q 66 386 72 377 q 62 406 62 395 l 62 539 q 104 632 62 592 q 199 675 147 675 l 326 675 q 366 656 343 675 q 396 607 391 627 q 427 656 402 627 q 467 676 441 670 l 467 450 l 422 450 l 422 494 l 154 494 l 154 406 l 404 406 q 464 382 440 406 q 486 323 486 360 z "},"t":{"ha":482,"x_min":45,"x_max":444,"o":"m 216 720 l 311 720 l 311 539 l 220 539 l 220 175 l 397 175 l 397 224 l 444 224 l 444 149 q 408 39 444 84 q 314 -8 372 -8 q 175 46 220 -8 q 129 183 129 100 l 129 539 l 45 539 l 45 720 l 129 720 l 129 899 l 216 899 l 216 720 z "},"u":{"ha":637,"x_min":45,"x_max":591,"o":"m 452 182 l 452 497 l 366 497 l 366 676 l 412 676 q 452 657 427 676 q 482 608 477 631 q 513 657 488 629 q 550 676 530 676 l 591 676 l 591 497 l 539 497 l 539 182 l 591 182 l 591 3 l 458 3 q 421 22 444 3 q 390 71 397 45 q 382 53 388 61 q 378 46 380 51 q 371 36 375 42 q 364 29 366 31 q 358 22 362 26 q 321 3 344 3 l 265 3 q 172 41 214 3 q 127 136 127 84 l 127 496 l 45 496 l 45 675 l 90 675 q 129 656 108 675 q 160 607 153 631 q 191 656 166 627 q 229 676 209 676 l 271 676 l 271 497 l 218 497 l 218 182 l 452 182 z "},"v":{"ha":671,"x_min":49,"x_max":624,"o":"m 339 241 l 482 496 l 401 496 l 401 675 l 454 675 q 485 656 471 675 q 510 607 508 621 q 534 656 514 630 q 564 675 552 675 l 624 675 l 624 496 l 554 496 l 374 179 l 450 179 l 450 0 l 397 0 q 368 21 380 0 q 342 68 347 50 q 317 21 342 51 q 286 0 302 0 l 229 0 l 229 179 l 298 179 l 125 496 l 49 496 l 49 675 l 103 675 q 132 656 119 675 q 158 607 156 625 q 182 656 161 629 q 212 675 199 675 l 271 675 l 271 496 l 201 496 l 339 241 z "},"w":{"ha":940,"x_min":49,"x_max":899,"o":"m 570 179 l 467 424 l 361 179 l 437 179 l 437 0 l 385 0 q 354 21 369 0 q 329 68 331 55 q 304 21 327 50 q 273 0 290 0 l 215 0 l 215 179 l 285 179 l 125 496 l 49 496 l 49 675 l 103 675 q 132 656 119 675 q 158 607 156 625 q 182 656 161 629 q 212 675 199 675 l 271 675 l 271 496 l 201 496 l 326 245 l 436 496 l 359 496 l 359 675 l 412 675 q 443 656 430 675 q 468 607 466 623 q 493 656 470 629 q 522 675 508 675 l 582 675 l 582 496 l 513 496 l 615 245 l 757 496 l 676 496 l 676 675 l 729 675 q 760 656 747 675 q 785 607 782 629 q 810 656 787 631 q 840 675 825 675 l 899 675 l 899 496 l 829 496 l 646 179 l 721 179 l 721 0 l 669 0 q 639 21 651 0 q 614 68 616 55 q 589 21 611 49 q 558 0 574 0 l 500 0 l 500 179 l 570 179 z "},"x":{"ha":625,"x_min":46,"x_max":582,"o":"m 115 179 l 277 339 l 125 496 l 49 496 l 49 675 l 103 675 q 132 656 119 675 q 158 607 158 625 q 182 656 158 625 q 212 675 197 675 l 271 675 l 271 496 l 201 496 l 315 376 l 436 496 l 359 496 l 359 675 l 412 675 q 443 656 430 675 q 453 642 447 652 q 464 624 459 635 q 468 607 468 615 q 493 656 468 627 q 522 675 508 675 l 582 675 l 582 496 l 513 496 l 354 339 l 507 179 l 582 179 l 582 0 l 530 0 q 500 21 513 0 q 490 33 497 26 q 479 52 480 50 q 475 68 475 59 q 450 21 475 54 q 419 0 433 0 l 361 0 l 361 179 l 431 179 l 314 300 l 191 179 l 267 179 l 267 0 l 215 0 q 184 21 197 0 q 160 68 160 52 q 134 21 160 50 q 104 0 119 0 l 46 0 l 46 179 l 115 179 z "},"y":{"ha":663,"x_min":47,"x_max":624,"o":"m 364 249 l 478 496 l 401 496 l 401 675 l 454 675 q 485 656 471 675 q 510 607 508 621 q 534 656 514 630 q 564 675 552 675 l 624 675 l 624 496 l 554 496 l 334 16 l 268 -136 l 215 -136 q 186 -117 202 -136 q 160 -68 164 -88 q 135 -117 157 -90 q 104 -136 119 -136 l 47 -136 l 47 45 l 271 45 l 332 176 l 125 496 l 49 496 l 49 675 l 103 675 q 132 656 119 675 q 158 607 156 625 q 182 656 161 629 q 212 675 199 675 l 271 675 l 271 496 l 201 496 l 364 249 z "},"z":{"ha":530,"x_min":43,"x_max":494,"o":"m 357 0 l 229 0 q 223 3 227 1 q 215 5 219 4 q 201 11 206 7 q 191 21 199 12 q 160 68 167 47 q 129 21 153 43 q 90 0 111 0 l 43 0 l 43 154 l 383 494 l 90 494 l 90 452 l 43 452 l 43 676 q 82 656 64 674 q 113 607 108 629 q 144 656 117 626 q 182 675 161 675 l 313 676 q 351 657 330 676 q 382 608 376 635 q 412 657 386 625 q 452 675 429 675 l 494 675 l 494 517 l 158 179 l 450 179 l 450 225 l 494 225 l 494 0 q 457 21 467 6 q 425 68 431 50 q 396 21 421 46 q 391 17 395 20 q 384 12 387 14 q 370 5 382 10 q 365 3 367 4 q 360 2 362 3 q 357 0 358 1 z "},"‚":{"ha":285,"x_min":28,"x_max":233,"o":"m 75 46 q 62 79 75 63 q 28 102 51 98 q 62 122 52 104 q 75 157 75 138 q 109 168 91 157 q 132 201 127 180 q 151 168 132 181 q 187 158 164 158 q 200 121 187 139 q 233 98 210 106 q 200 78 212 94 q 187 46 187 62 q 170 -57 187 -22 q 49 -135 131 -129 q 100 -98 81 -129 q 121 -33 121 -71 q 104 20 121 -4 q 75 46 94 36 z "},"„":{"ha":562,"x_min":28,"x_max":549,"o":"m 75 46 q 62 79 75 63 q 28 102 51 98 q 62 122 52 104 q 75 157 75 138 q 109 168 91 157 q 132 201 127 180 q 151 168 132 181 q 187 158 164 158 q 200 121 187 139 q 233 98 210 106 q 200 78 212 94 q 187 46 187 62 q 170 -57 187 -22 q 49 -135 131 -129 q 100 -98 81 -129 q 121 -33 121 -71 q 104 20 121 -4 q 75 46 94 36 m 390 40 q 379 75 390 55 q 343 96 367 94 q 379 118 367 98 q 390 151 390 133 q 424 163 402 151 q 447 197 444 178 q 467 163 450 178 q 503 153 482 153 q 515 117 503 134 q 549 93 525 99 q 515 74 525 89 q 503 40 503 56 q 505 11 505 16 q 485 -62 505 -22 q 366 -140 447 -132 q 416 -103 398 -134 q 437 -37 437 -74 q 421 14 437 -9 q 390 40 408 33 z "},"‘":{"ha":253,"x_min":26,"x_max":232,"o":"m 197 794 q 186 828 186 809 q 155 854 163 842 q 139 907 141 874 q 160 972 139 941 q 211 1008 179 1002 q 90 930 131 1002 q 71 859 71 888 q 74 828 71 853 q 61 796 74 816 q 26 775 47 779 q 61 753 49 770 q 74 715 74 734 q 109 705 99 715 q 129 672 127 693 q 151 705 133 692 q 186 717 169 717 q 197 751 186 738 q 232 772 208 770 q 197 794 211 774 z "},"’":{"ha":253,"x_min":28,"x_max":233,"o":"m 75 854 q 62 888 75 871 q 28 909 51 907 q 62 930 50 909 q 75 965 75 945 q 109 977 89 965 q 132 1010 127 989 q 151 977 132 989 q 187 965 166 965 q 200 929 187 946 q 233 907 212 911 q 200 886 212 903 q 187 854 187 870 q 189 827 189 847 q 170 751 189 792 q 49 673 132 680 q 100 710 81 680 q 121 774 121 738 q 104 827 121 803 q 75 854 96 841 z "},"“":{"ha":555,"x_min":26,"x_max":541,"o":"m 505 789 q 493 823 493 804 q 464 850 475 833 q 447 903 447 874 q 468 966 447 937 q 519 1004 490 997 q 399 925 439 996 q 379 854 379 884 q 382 823 379 839 q 368 790 382 806 q 335 771 355 773 q 368 747 354 767 q 382 711 382 728 q 416 701 402 711 q 437 667 435 687 q 460 701 439 688 q 493 713 481 713 q 505 746 493 730 q 541 768 518 766 q 505 789 519 770 m 197 794 q 186 828 186 809 q 155 854 163 842 q 139 907 141 874 q 160 972 139 943 q 211 1008 179 1002 q 90 930 131 1002 q 71 859 71 888 q 74 828 71 853 q 61 796 74 816 q 26 775 47 779 q 61 753 49 770 q 74 715 74 734 q 109 705 99 715 q 129 672 127 693 q 151 705 134 694 q 186 717 167 717 q 197 751 186 738 q 232 772 208 770 q 197 794 211 774 z "},"”":{"ha":562,"x_min":28,"x_max":542,"o":"m 75 854 q 62 888 75 871 q 28 909 51 907 q 62 930 50 909 q 75 965 75 945 q 109 977 89 965 q 132 1010 127 989 q 151 977 132 989 q 187 965 166 965 q 200 929 187 946 q 233 907 212 911 q 200 886 212 903 q 187 854 187 870 q 189 827 189 847 q 170 751 189 792 q 49 673 132 680 q 100 710 81 680 q 121 774 121 738 q 104 827 121 803 q 75 854 96 841 m 382 848 q 371 882 382 869 q 336 904 361 902 q 371 925 358 906 q 382 960 382 940 q 416 971 397 960 q 439 1006 437 985 q 460 971 441 985 q 494 961 471 961 q 507 924 494 945 q 542 901 521 905 q 507 882 520 897 q 494 848 494 864 q 497 818 497 821 q 478 746 497 785 q 357 668 440 676 q 408 704 389 674 q 429 770 429 733 q 412 822 429 800 q 382 848 403 838 z "},"–":{"ha":568,"x_min":40,"x_max":547,"o":"m 547 408 l 406 408 q 335 389 359 408 q 293 317 297 362 q 249 389 286 366 q 179 408 224 408 l 40 408 l 40 545 l 176 545 q 244 567 217 545 q 292 633 283 593 q 332 566 298 593 q 403 545 361 545 l 547 545 l 547 408 z "},"—":{"ha":728,"x_min":40,"x_max":684,"o":"m 684 408 l 473 408 q 403 389 428 408 q 361 317 366 363 q 317 389 354 366 q 248 408 292 408 l 40 408 l 40 545 l 244 545 q 313 567 283 545 q 359 633 349 591 q 400 566 367 591 q 471 545 428 545 l 684 545 l 684 408 z "}," ":{"ha":315,"x_min":0,"x_max":0,"o":""},"¢":{"ha":486,"x_min":43,"x_max":444,"o":"m 196 -132 l 196 -12 l 180 -12 q 135 -1 151 -12 q 90 32 120 6 q 56 75 62 61 q 43 121 43 94 l 43 551 q 90 643 43 597 q 134 676 117 667 q 179 688 153 688 l 196 688 l 196 808 l 285 808 l 285 688 l 304 688 q 342 668 320 688 q 372 619 369 637 q 404 668 378 638 q 444 689 422 689 l 444 406 l 399 406 l 399 494 l 285 494 l 285 179 l 397 179 l 397 271 l 443 271 l 443 122 q 433 77 443 98 q 399 33 428 66 q 309 -12 357 -12 l 285 -12 l 285 -132 l 196 -132 m 196 179 l 196 494 l 135 494 l 135 179 l 196 179 z "},"£":{"ha":720,"x_min":7,"x_max":673,"o":"m 335 600 q 385 568 353 568 l 479 568 l 479 486 l 385 486 q 335 446 354 486 q 315 375 315 399 l 315 225 l 585 225 l 585 314 l 673 314 l 673 0 l 632 0 q 593 21 612 0 q 562 68 570 44 q 532 21 558 48 q 493 0 515 0 l 315 0 q 278 21 296 0 q 248 68 255 41 q 215 21 243 47 q 178 0 199 0 l 43 0 l 43 225 l 178 225 l 179 375 q 160 446 179 419 q 93 486 134 486 l 7 486 l 7 568 l 94 568 q 160 600 140 568 q 178 669 178 626 l 178 766 l 45 766 l 45 991 l 178 991 q 215 971 197 991 q 248 924 239 949 q 278 971 254 949 q 315 991 298 991 l 449 991 l 449 766 l 317 766 l 317 669 q 335 600 317 627 z "},"©":{"ha":935,"x_min":43,"x_max":896,"o":"m 672 -20 l 271 -20 q 179 26 225 -20 q 134 117 134 72 l 134 406 q 115 476 134 450 q 43 518 87 514 q 115 562 89 522 q 134 632 134 587 l 134 875 q 144 922 134 899 q 178 965 156 943 q 272 1011 222 1011 l 672 1011 q 718 1000 701 1011 q 761 965 743 985 q 808 875 808 922 l 808 632 q 829 562 808 593 q 896 517 852 527 q 828 476 854 511 q 807 406 809 449 l 807 117 q 761 26 807 75 q 672 -20 724 -10 m 310 85 l 632 85 q 701 121 671 90 q 739 193 739 159 l 741 800 q 701 873 741 840 q 632 909 665 909 l 313 909 q 236 873 274 909 q 201 800 201 839 l 201 193 q 236 121 201 157 q 310 85 272 87 m 404 250 l 515 250 q 534 260 523 250 q 550 285 550 277 q 566 260 552 276 q 585 250 580 250 l 606 250 l 606 408 l 561 408 l 561 363 l 404 363 l 404 453 q 414 489 404 475 q 449 509 428 507 q 415 532 431 513 q 404 566 404 552 l 404 632 l 561 632 l 561 589 l 606 589 l 606 746 l 585 746 q 566 736 575 746 q 550 713 551 715 q 534 736 550 717 q 515 746 527 746 l 406 746 q 357 723 377 746 q 336 677 336 701 l 336 566 q 326 532 336 547 q 290 509 311 513 q 326 489 313 507 q 336 453 336 476 l 336 318 q 358 272 336 297 q 404 250 383 250 z "},"®":{"ha":935,"x_min":43,"x_max":896,"o":"m 672 -20 l 271 -20 q 179 26 225 -20 q 134 117 134 72 l 134 406 q 115 476 134 450 q 43 518 87 514 q 115 562 87 522 q 134 632 134 587 l 134 875 q 144 922 134 899 q 178 965 156 943 q 272 1011 222 1011 l 672 1011 q 718 1000 701 1011 q 761 965 743 985 q 808 875 808 922 l 808 632 q 829 562 808 593 q 896 517 852 527 q 828 476 854 511 q 807 406 809 449 l 807 117 q 761 26 807 75 q 672 -20 724 -10 m 310 85 l 632 85 q 701 121 671 90 q 739 193 739 159 l 741 800 q 701 873 741 840 q 632 909 665 909 l 313 909 q 236 873 274 909 q 201 800 201 839 l 201 193 q 236 121 201 157 q 310 85 272 87 m 471 485 l 425 485 l 425 372 l 469 372 l 469 260 l 425 260 q 407 271 416 260 q 392 294 396 281 q 376 271 389 287 q 357 260 366 260 l 310 260 l 313 372 l 357 372 l 357 463 q 349 497 357 485 q 313 519 337 517 q 349 541 336 522 q 357 576 357 553 l 357 643 l 313 643 l 313 755 l 357 755 q 376 745 368 755 q 392 721 387 733 q 407 745 396 736 q 425 755 414 755 l 538 755 q 583 732 562 755 q 606 688 606 710 l 606 665 q 615 631 606 642 q 650 608 628 610 q 615 587 628 606 q 608 570 610 580 q 604 554 607 562 q 590 517 600 528 q 559 494 576 500 q 593 464 583 487 q 604 427 604 448 l 604 372 l 650 372 l 650 260 l 538 260 l 538 419 q 515 461 538 435 q 471 485 493 485 m 534 553 l 534 643 l 425 643 l 425 553 l 534 553 z "},"Ä":{"ha":947,"x_min":45,"x_max":903,"o":"m 321 359 l 271 225 l 361 225 l 361 0 l 271 0 q 233 21 252 0 q 203 68 209 45 q 172 21 199 51 q 134 0 154 0 l 45 0 l 45 225 l 134 225 l 158 298 q 161 317 161 311 q 140 374 161 335 q 89 428 121 410 q 138 461 91 429 q 187 498 155 473 q 239 551 216 524 q 269 612 258 580 l 325 766 l 269 766 l 269 991 l 404 991 q 441 971 423 991 q 473 924 467 944 q 504 971 481 947 q 542 991 527 991 l 675 991 l 675 766 l 623 766 l 675 611 q 746 498 695 555 q 796 454 775 467 q 856 427 813 443 q 849 420 854 425 q 833 406 844 415 q 808 378 818 395 q 781 315 781 334 q 785 294 781 304 l 812 225 l 903 225 l 903 0 l 812 0 q 775 21 793 0 q 745 68 752 41 q 714 21 741 53 q 675 0 695 0 l 586 0 l 586 225 l 675 225 l 627 359 l 321 359 m 475 766 l 371 496 l 576 496 l 475 766 m 292 1086 q 281 1120 292 1106 q 244 1141 268 1139 q 281 1162 266 1144 q 292 1197 292 1178 q 326 1208 308 1197 q 349 1243 345 1218 q 368 1208 351 1219 q 404 1198 386 1198 q 416 1161 404 1185 q 452 1139 427 1145 q 416 1118 430 1135 q 404 1086 406 1104 q 370 1076 386 1086 q 350 1039 350 1062 q 326 1076 348 1063 q 292 1086 312 1086 m 549 1083 q 538 1118 549 1105 q 503 1139 526 1137 q 538 1160 524 1141 q 549 1194 549 1173 q 583 1206 564 1194 q 606 1240 604 1219 q 627 1206 608 1219 q 661 1196 642 1196 q 673 1160 661 1181 q 708 1136 688 1140 q 673 1117 688 1132 q 661 1083 661 1096 q 628 1074 643 1083 q 607 1036 607 1057 q 585 1074 605 1058 q 549 1083 570 1083 z "},"Ö":{"ha":796,"x_min":43,"x_max":764,"o":"m 539 -20 l 271 -20 q 176 24 220 -20 q 134 117 134 66 l 134 406 q 115 476 134 450 q 43 518 87 514 q 115 562 89 522 q 134 632 134 587 l 134 875 q 174 968 134 930 q 272 1011 215 1011 l 539 1011 q 633 968 588 1011 q 675 875 675 929 l 675 632 q 697 562 675 598 q 764 517 724 526 q 696 476 722 511 q 673 406 673 446 l 673 117 q 632 24 673 67 q 539 -20 598 -10 m 271 766 l 271 633 q 293 566 271 598 q 359 519 323 527 q 292 479 320 515 q 271 408 271 449 l 269 225 l 539 225 l 539 406 q 521 476 539 448 q 449 518 493 514 q 521 562 492 522 q 539 632 539 591 l 539 766 l 271 766 m 221 1080 q 210 1116 221 1094 q 174 1136 195 1134 q 210 1158 195 1138 q 221 1192 221 1175 q 256 1203 231 1192 q 278 1238 274 1217 q 298 1203 280 1215 q 334 1193 312 1193 q 346 1157 334 1177 q 380 1133 361 1137 q 346 1114 357 1131 q 334 1080 334 1097 q 298 1071 317 1080 q 279 1035 279 1058 q 257 1071 277 1057 q 221 1080 235 1080 m 479 1078 q 467 1112 479 1097 q 432 1133 456 1131 q 467 1156 455 1135 q 479 1189 479 1171 q 513 1202 496 1189 q 534 1235 532 1213 q 555 1202 537 1214 q 590 1190 568 1190 q 604 1154 590 1173 q 637 1132 616 1134 q 604 1111 614 1127 q 590 1078 590 1095 q 557 1068 571 1078 q 536 1032 536 1056 q 514 1068 533 1055 q 479 1078 498 1078 z "},"Ü":{"ha":802,"x_min":43,"x_max":768,"o":"m 675 766 l 675 632 q 697 562 675 598 q 764 517 724 526 q 696 476 722 511 q 673 406 673 446 l 673 135 q 633 43 673 83 q 539 0 595 7 l 271 0 q 176 43 219 0 q 134 135 134 85 l 134 406 q 115 476 134 450 q 43 518 87 514 q 115 562 89 522 q 134 632 134 587 l 134 766 l 43 766 l 43 991 l 132 991 q 171 971 151 991 q 201 924 197 941 q 232 971 208 949 q 271 991 252 991 l 359 991 l 359 766 l 271 766 l 271 633 q 293 566 271 596 q 359 519 323 527 q 292 479 320 515 q 271 408 271 449 l 271 225 l 539 225 l 539 406 q 521 476 539 448 q 449 518 493 514 q 521 562 492 522 q 539 632 539 591 l 539 766 l 452 766 l 452 991 l 541 991 q 578 971 559 991 q 610 924 605 942 q 640 971 616 948 q 677 991 661 991 l 768 991 l 768 766 l 675 766 m 215 1080 q 204 1116 215 1099 q 170 1136 194 1134 q 204 1158 194 1138 q 215 1192 215 1171 q 250 1203 231 1192 q 272 1238 270 1217 q 293 1203 274 1218 q 328 1193 304 1193 q 340 1157 328 1177 q 375 1133 356 1137 q 340 1114 353 1131 q 328 1080 328 1098 q 294 1071 311 1080 q 273 1035 273 1056 q 252 1071 271 1057 q 215 1080 231 1080 m 473 1078 q 463 1112 473 1095 q 427 1133 448 1131 q 463 1156 447 1135 q 473 1189 473 1173 q 507 1202 488 1189 q 530 1235 524 1211 q 550 1202 532 1215 q 586 1190 565 1190 q 599 1154 586 1170 q 632 1132 610 1134 q 599 1111 611 1128 q 586 1078 586 1097 q 551 1068 563 1078 q 532 1032 532 1055 q 509 1068 530 1055 q 473 1078 491 1078 z "},"ß":{"ha":765,"x_min":43,"x_max":700,"o":"m 109 -136 l 43 -136 l 43 -3 l 178 -3 l 179 406 q 160 476 179 450 q 89 518 134 514 q 160 562 138 522 q 178 632 178 587 l 178 766 l 176 852 q 189 905 176 878 q 212 945 201 935 q 315 991 255 991 l 473 991 q 572 954 533 991 q 608 869 608 920 l 608 851 q 632 789 608 825 q 699 743 654 754 q 631 701 653 737 q 608 632 610 677 l 608 582 q 602 551 608 567 q 564 518 588 526 q 597 486 585 507 q 610 452 610 467 l 610 400 q 632 339 610 368 q 700 292 656 302 q 632 252 656 288 q 610 179 612 226 l 610 135 q 606 82 610 100 q 583 40 602 62 q 514 0 549 0 l 437 0 l 437 225 l 518 225 l 518 363 q 489 422 518 393 q 429 452 456 452 l 285 452 l 285 -136 l 245 -136 q 208 -117 231 -136 q 178 -68 184 -92 q 146 -117 172 -91 q 109 -136 128 -136 m 518 854 l 285 854 l 285 586 l 358 586 q 380 585 371 586 l 403 585 q 481 608 449 585 q 518 667 518 636 l 518 854 z "},"ä":{"ha":568,"x_min":12,"x_max":533,"o":"m 36 122 l 36 269 q 81 359 36 311 q 175 406 125 406 l 351 406 l 351 494 l 81 494 l 81 406 l 35 406 l 35 689 q 77 668 58 685 q 107 619 104 635 q 138 668 113 644 q 175 688 156 688 l 309 688 q 406 647 361 688 q 444 551 444 611 l 444 179 l 533 179 l 533 -12 l 490 -12 q 452 7 475 -12 q 422 56 427 34 q 390 7 416 37 q 353 -12 373 -12 l 174 -12 q 77 25 116 -12 q 36 122 36 66 m 127 179 l 351 179 l 351 314 l 127 314 l 127 179 m 60 839 q 49 872 60 857 q 12 895 33 892 q 49 916 34 897 q 60 950 60 933 q 93 961 75 950 q 117 994 113 971 q 136 961 119 970 q 172 951 147 954 q 184 914 172 930 q 218 892 195 898 q 184 871 197 890 q 172 839 172 859 q 138 828 151 839 q 118 791 118 816 q 94 828 116 814 q 60 839 81 839 m 317 836 q 306 869 317 857 q 271 892 293 890 q 306 913 293 894 q 317 947 317 928 q 351 958 334 947 q 374 993 367 967 q 395 958 376 969 q 429 949 406 951 q 441 911 429 935 q 476 889 452 897 q 441 868 455 885 q 429 836 429 852 q 396 827 410 836 q 375 789 375 810 q 353 827 373 810 q 317 836 334 836 z "},"ö":{"ha":486,"x_min":12,"x_max":476,"o":"m 314 -12 l 180 -12 q 135 -1 155 -12 q 90 33 123 4 q 56 77 62 62 q 43 122 43 96 l 43 547 q 85 646 43 604 q 184 688 127 688 l 313 688 q 411 643 366 688 q 450 553 450 602 l 450 122 q 404 33 450 79 q 314 -12 365 -6 m 135 494 l 135 179 l 358 179 l 358 494 l 135 494 m 60 833 q 49 868 60 854 q 12 889 33 887 q 49 909 33 891 q 60 945 60 925 q 93 956 73 945 q 117 990 113 970 q 136 956 119 968 q 172 946 151 946 q 184 909 172 927 q 218 886 196 890 q 184 867 197 882 q 172 833 175 854 q 138 823 151 833 q 118 786 118 809 q 94 823 116 808 q 60 833 79 833 m 317 831 q 306 865 317 851 q 271 886 294 884 q 306 908 295 888 q 317 942 317 922 q 351 953 330 942 q 374 987 369 964 q 395 953 376 964 q 429 943 411 943 q 441 907 429 928 q 476 884 458 887 q 441 864 457 880 q 429 831 429 847 q 396 821 409 831 q 375 785 377 810 q 353 821 373 807 q 317 831 336 831 z "},"ü":{"ha":637,"x_min":45,"x_max":591,"o":"m 452 182 l 452 497 l 366 497 l 366 676 l 412 676 q 452 657 427 676 q 482 608 477 631 q 513 657 488 629 q 550 676 530 676 l 591 676 l 591 497 l 539 497 l 539 182 l 591 182 l 591 3 l 458 3 q 421 22 444 3 q 390 71 397 45 q 382 53 388 61 q 378 46 380 51 q 371 36 375 42 q 364 29 366 31 q 358 22 362 26 q 321 3 344 3 l 265 3 q 172 41 214 3 q 127 136 127 84 l 127 496 l 45 496 l 45 675 l 90 675 q 129 656 108 675 q 160 607 153 631 q 191 656 166 627 q 229 676 209 676 l 271 676 l 271 497 l 218 497 l 218 182 l 452 182 m 135 839 q 123 872 135 861 q 89 895 112 892 q 123 916 111 897 q 135 950 135 930 q 170 961 155 950 q 192 994 188 972 q 212 961 194 975 q 248 951 224 954 q 260 914 248 932 q 294 892 269 899 q 260 871 276 890 q 248 839 248 854 q 214 828 229 839 q 193 791 193 813 q 171 828 191 812 q 135 839 157 839 m 393 836 q 382 869 393 853 q 346 892 370 890 q 382 913 368 894 q 393 947 393 934 q 427 958 408 947 q 450 993 446 970 q 469 958 452 968 q 505 949 484 951 q 518 911 505 931 q 551 889 528 896 q 518 868 529 885 q 505 836 505 855 q 471 827 487 836 q 452 789 452 811 q 428 827 450 810 q 393 836 412 836 z "},"ÿ":{"ha":416,"x_min":69,"x_max":367,"o":"m 278 1084 l 205 865 q 189 850 201 850 q 178 863 178 850 l 170 1007 q 183 1019 170 1019 q 196 1007 196 1019 l 201 940 l 252 1092 q 264 1101 254 1101 q 278 1084 278 1101 m 363 836 q 334 827 353 827 q 318 828 326 827 q 294 828 310 828 q 261 825 273 828 q 249 828 252 825 q 245 842 245 831 q 284 895 255 873 q 321 939 314 918 q 323 956 321 945 q 318 965 323 963 q 285 956 285 965 q 271 935 285 935 q 261 940 263 935 q 258 953 258 949 q 276 981 258 969 q 313 993 294 993 q 336 986 324 993 q 351 957 351 975 q 349 937 351 952 q 335 909 345 919 q 307 883 326 899 q 281 852 289 867 q 306 852 297 852 q 325 851 315 852 q 342 856 338 851 q 351 861 345 861 q 367 844 367 859 q 363 836 367 840 m 142 875 l 83 867 q 69 879 69 867 l 82 1039 q 94 1050 82 1050 q 105 1046 100 1050 q 110 1035 110 1042 l 97 896 l 139 900 q 154 886 154 898 q 142 875 154 875 z "}}}
